<?xml version="1.0" encoding="UTF-8"?>
<!DOCTYPE svg PUBLIC "-//W3C//DTD SVG 1.1//EN" "http://www.w3.org/Graphics/SVG/1.1/DTD/svg11.dtd">
<!-- Creator: CorelDRAW X7 -->
<svg xmlns="http://www.w3.org/2000/svg" xml:space="preserve" width="1.80249in" height="1.56374in" version="1.1" style="shape-rendering:geometricPrecision; text-rendering:geometricPrecision; image-rendering:optimizeQuality; fill-rule:evenodd; clip-rule:evenodd"
viewBox="0 0 265 230"
 xmlns:xlink="http://www.w3.org/1999/xlink">
 <defs>
  <style type="text/css">
   <![CDATA[
    .fil2 {fill:black}
    .fil1 {fill:white}
    .fil0 {fill:white;fill-rule:nonzero}
   ]]>
  </style>
 </defs>
 <g id="Layer_x0020_1">
  <metadata id="CorelCorpID_0Corel-Layer"/>
  <g id="_2896939816464">
   <path class="fil0" d="M0 86l0 -86 38 0c9,0 17,2 24,5 7,4 13,9 17,15 4,7 6,14 6,23 0,9 -2,16 -6,23 -4,6 -10,11 -17,15 -7,3 -15,5 -24,5l-38 0zm16 -13l21 0c6,0 12,-2 17,-4 4,-3 8,-6 11,-10 2,-5 3,-10 3,-16 0,-6 -1,-11 -3,-16 -3,-4 -7,-7 -11,-10 -5,-2 -11,-3 -17,-3l-21 0 0 59zm100 -37l43 0 0 13 -43 0 0 -13zm1 37l49 0 0 13 -64 0 0 -86 62 0 0 13 -47 0 0 60zm67 13l0 -86 13 0 54 66 -7 0 0 -66 16 0 0 86 -13 0 -54 -66 7 0 0 66 -16 0z"/>
   <path class="fil0" d="M0 174l0 -86 13 0 54 66 -6 0 0 -66 15 0 0 86 -13 0 -54 -67 7 0 0 67 -16 0zm129 0l0 -86 16 0 0 86 -16 0zm95 1c-7,0 -13,-1 -19,-3 -6,-2 -11,-5 -15,-8l6 -12c3,3 7,5 13,7 5,2 10,2 15,2 5,0 8,0 11,-1 3,-1 5,-2 6,-4 2,-2 2,-4 2,-6 0,-2 -1,-4 -3,-6 -2,-2 -4,-3 -7,-4 -3,-1 -6,-2 -10,-2 -4,-1 -7,-2 -11,-3 -3,-1 -7,-3 -10,-5 -3,-1 -5,-4 -7,-7 -2,-3 -3,-6 -3,-11 0,-5 1,-9 4,-13 2,-4 6,-7 11,-9 5,-3 12,-4 20,-4 5,0 10,1 15,2 5,2 10,3 13,6l-5 12c-4,-2 -7,-4 -12,-5 -4,-1 -8,-1 -11,-1 -5,0 -8,0 -11,1 -3,1 -5,3 -6,4 -1,2 -2,4 -2,6 0,3 1,5 3,7 2,1 4,2 7,3 3,1 6,2 10,3 4,1 7,2 11,3 4,1 7,2 10,4 3,2 5,4 7,7 2,3 3,7 3,11 0,5 -1,9 -4,13 -2,4 -6,7 -11,9 -5,3 -12,4 -20,4z"/>
   <path class="fil0" d="M0 228l39 -86 15 0 39 86 -16 0 -34 -78 7 0 -34 78 -16 0zm18 -20l4 -13 47 0 4 13 -55 0zm77 20l0 -86 38 0c9,0 17,1 24,5 7,4 13,9 17,15 4,6 6,14 6,23 0,8 -2,16 -6,22 -4,7 -10,12 -17,15 -7,4 -15,6 -24,6l-38 0zm16 -14l21 0c6,0 12,-1 17,-4 4,-2 8,-5 11,-10 2,-4 4,-9 4,-15 0,-6 -2,-12 -4,-16 -3,-4 -7,-8 -11,-10 -5,-3 -11,-4 -17,-4l-21 0 0 59z"/>
   <path class="fil1" d="M225 150c22,0 40,18 40,40 0,22 -18,40 -40,40 -22,0 -40,-18 -40,-40 0,-22 18,-40 40,-40z"/>
   <path class="fil2" d="M211 181c3,0 6,1 6,1 0,1 -3,1 -6,1 -4,0 -7,0 -7,-1 0,0 3,-1 7,-1z"/>
   <path class="fil2" d="M241 174c3,0 6,3 6,5 0,3 -3,5 -6,5 -4,0 -7,-2 -7,-5 0,-2 3,-5 7,-5z"/>
   <path class="fil2" d="M200 198c17,23 34,25 51,0 -17,10 -34,10 -51,0z"/>
  </g>
 </g>
</svg>
