<?xml version="1.0" encoding="UTF-8"?>
<!DOCTYPE svg PUBLIC "-//W3C//DTD SVG 1.1//EN" "http://www.w3.org/Graphics/SVG/1.1/DTD/svg11.dtd">
<!-- Creator: CorelDRAW X7 -->
<svg xmlns="http://www.w3.org/2000/svg" xml:space="preserve" width="3.53676in" height="3.06831in" version="1.1" style="shape-rendering:geometricPrecision; text-rendering:geometricPrecision; image-rendering:optimizeQuality; fill-rule:evenodd; clip-rule:evenodd"
viewBox="0 0 636 552"
 xmlns:xlink="http://www.w3.org/1999/xlink">
 <defs>
  <style type="text/css">
   <![CDATA[
    .fil1 {fill:black}
    .fil2 {fill:white}
    .fil0 {fill:black;fill-rule:nonzero}
   ]]>
  </style>
 </defs>
 <g id="Layer_x0020_1">
  <metadata id="CorelCorpID_0Corel-Layer"/>
  <g id="_2896847358672">
   <path class="fil0" d="M0 206l0 -206 90 0c23,0 42,4 59,13 17,9 30,21 40,36 9,15 14,33 14,54 0,21 -5,39 -14,54 -10,16 -23,28 -40,36 -17,9 -36,13 -59,13l-90 0zm38 -32l50 0c16,0 29,-3 41,-9 11,-6 20,-14 26,-25 6,-10 9,-23 9,-37 0,-14 -3,-27 -9,-37 -6,-11 -15,-19 -26,-25 -12,-6 -25,-9 -41,-9l-50 0 0 142zm241 -88l103 0 0 31 -103 0 0 -31zm3 88l116 0 0 32 -154 0 0 -206 150 0 0 32 -112 0 0 142zm159 32l0 -206 32 0 129 159 -15 0 0 -159 38 0 0 206 -32 0 -129 -159 15 0 0 159 -38 0z"/>
   <path class="fil0" d="M0 416l0 -206 32 0 129 159 -16 0 0 -159 38 0 0 206 -31 0 -130 -159 16 0 0 159 -38 0zm309 0l0 -206 39 0 0 206 -39 0zm229 3c-16,0 -32,-2 -46,-7 -15,-4 -27,-10 -36,-17l14 -30c8,6 18,12 30,16 13,4 25,6 38,6 11,0 19,-1 26,-3 7,-2 12,-6 15,-10 3,-4 5,-8 5,-13 0,-7 -3,-12 -7,-16 -5,-3 -11,-6 -18,-9 -7,-2 -15,-4 -24,-6 -8,-2 -17,-4 -26,-7 -9,-3 -17,-6 -24,-10 -7,-4 -13,-10 -17,-17 -5,-7 -7,-16 -7,-27 0,-12 3,-22 9,-31 6,-10 15,-17 27,-23 13,-5 28,-8 47,-8 12,0 25,2 37,5 12,3 23,7 32,13l-12 30c-10,-5 -19,-10 -29,-12 -10,-3 -19,-4 -28,-4 -11,0 -20,1 -26,4 -7,2 -11,6 -15,10 -3,4 -4,9 -4,14 0,6 2,11 7,15 4,4 10,7 17,9 7,2 15,4 24,6 9,2 18,5 26,7 9,3 17,6 24,10 7,4 13,10 18,17 4,7 6,16 6,27 0,11 -3,21 -9,31 -6,9 -15,16 -27,22 -13,6 -28,8 -47,8z"/>
   <path class="fil0" d="M0 546l93 -206 38 0 93 206 -40 0 -80 -186 15 0 -79 186 -40 0zm43 -48l10 -30 112 0 10 30 -132 0zm185 48l0 -206 90 0c23,0 42,4 59,13 17,8 30,20 40,36 9,15 14,33 14,54 0,21 -5,39 -14,54 -10,15 -23,28 -40,36 -17,9 -36,13 -59,13l-90 0zm38 -32l51 0c15,0 29,-3 40,-9 11,-6 20,-14 26,-25 6,-11 9,-23 9,-37 0,-14 -3,-27 -9,-37 -6,-11 -15,-19 -26,-25 -11,-6 -25,-9 -40,-9l-51 0 0 142z"/>
   <path class="fil1" d="M540 360c53,0 96,43 96,96 0,53 -43,96 -96,96 -53,0 -96,-43 -96,-96 0,-53 43,-96 96,-96z"/>
   <path class="fil2" d="M506 435c8,0 15,1 15,2 0,1 -7,3 -15,3 -9,0 -16,-2 -16,-3 0,-1 7,-2 16,-2z"/>
   <path class="fil2" d="M577 418c9,0 16,6 16,12 0,7 -7,13 -16,13 -9,0 -16,-6 -16,-13 0,-6 7,-12 16,-12z"/>
   <path class="fil2" d="M480 476c40,55 81,58 122,0 -40,24 -81,24 -122,0z"/>
  </g>
 </g>
</svg>
