<?xml version="1.0" encoding="UTF-8"?>
<!DOCTYPE svg PUBLIC "-//W3C//DTD SVG 1.1//EN" "http://www.w3.org/Graphics/SVG/1.1/DTD/svg11.dtd">
<!-- Creator: CorelDRAW X7 -->
<svg xmlns="http://www.w3.org/2000/svg" xml:space="preserve" width="5.8055in" height="5.8055in" version="1.1" style="shape-rendering:geometricPrecision; text-rendering:geometricPrecision; image-rendering:optimizeQuality; fill-rule:evenodd; clip-rule:evenodd"
viewBox="0 0 4977 4977"
 xmlns:xlink="http://www.w3.org/1999/xlink">
 <defs>
  <style type="text/css">
   <![CDATA[
    .fil0 {fill:none}
    .fil1 {fill:white}
   ]]>
  </style>
 </defs>
 <g id="Layer_x0020_1">
  <metadata id="CorelCorpID_0Corel-Layer"/>
  <g id="_2798439357232">
   <rect class="fil0" width="4977" height="4977"/>
   <g>
    <path class="fil1" d="M301 1542c-151,-360 -142,-698 55,-867 198,-169 532,-126 865,78 360,-151 698,-142 867,55 169,197 126,532 -78,865 151,360 142,697 -55,866 -197,169 -532,127 -865,-77 -360,151 -698,142 -867,-55 -169,-198 -126,-533 78,-865z"/>
    <path class="fil1" d="M2431 1268c-151,-360 -142,-698 55,-867 197,-169 532,-126 865,78 360,-151 697,-142 866,55 169,197 127,532 -77,865 150,360 142,698 -56,867 -197,169 -532,126 -864,-78 -360,151 -698,142 -867,-55 -169,-197 -126,-532 78,-865z"/>
    <path class="fil1" d="M2812 3408c-150,-360 -142,-697 56,-866 197,-169 532,-127 864,77 360,-150 698,-142 867,56 169,197 126,532 -78,864 151,360 142,698 -55,867 -197,169 -532,126 -865,-78 -360,151 -697,142 -866,-55 -169,-197 -127,-532 77,-865z"/>
    <path class="fil1" d="M663 3703c-151,-360 -142,-698 55,-867 198,-169 533,-126 865,78 360,-151 698,-142 867,55 169,197 126,532 -78,865 151,360 142,698 -55,867 -197,169 -532,126 -865,-78 -360,151 -697,142 -866,-55 -170,-197 -127,-532 77,-865z"/>
   </g>
  </g>
 </g>
</svg>
