<?xml version="1.0" encoding="UTF-8"?>
<!DOCTYPE svg PUBLIC "-//W3C//DTD SVG 1.1//EN" "http://www.w3.org/Graphics/SVG/1.1/DTD/svg11.dtd">
<!-- Creator: CorelDRAW X7 -->
<svg xmlns="http://www.w3.org/2000/svg" xml:space="preserve" width="0.903303in" height="0.903303in" version="1.1" style="shape-rendering:geometricPrecision; text-rendering:geometricPrecision; image-rendering:optimizeQuality; fill-rule:evenodd; clip-rule:evenodd"
viewBox="0 0 165 165"
 xmlns:xlink="http://www.w3.org/1999/xlink">
 <defs>
  <style type="text/css">
   <![CDATA[
    .fil0 {fill:#FEFEFE}
    .fil1 {fill:#570000}
   ]]>
  </style>
 </defs>
 <g id="Layer_x0020_1">
  <metadata id="CorelCorpID_0Corel-Layer"/>
  <g id="_2015823417584">
   <circle class="fil0" cx="83" cy="83" r="83"/>
   <path class="fil1" d="M20 84c-4,5 3,18 15,30 13,13 27,20 31,15 4,-4 -3,-17 -15,-30 -3,-3 -7,-6 -10,-8 11,1 26,2 42,2 35,0 63,-5 63,-10 0,-6 -28,-11 -63,-11 -16,0 -31,1 -42,2 3,-2 7,-5 10,-8 12,-13 19,-26 15,-30 -4,-5 -18,2 -31,15 -12,12 -19,25 -15,30 0,0 -1,1 -1,2 0,0 1,1 1,1z"/>
  </g>
 </g>
</svg>
